{
  "accessors": [
    {
      "bufferView": 1,
      "componentType": 5126,
      "count": 65532,
      "max": [
        57.70399856567383,
        30.19603729248047,
        27.92342185974121
      ],
      "min": [
        2.883404016494751,
        0.09570900350809097,
        20.290050506591797
      ],
      "type": "VEC3"
    },
    {
      "bufferView": 1,
      "byteOffset": 786384,
      "componentType": 5126,
      "count": 65532,
      "max": [
        0.9999775290489197,
        0.9999493360519409,
        0.9991906881332397
      ],
      "min": [
        -0.999807596206665,
        -0.9999604821205139,
        -1.0
      ],
      "type": "VEC3"
    },
    {
      "bufferView": 0,
      "componentType": 5125,
      "count": 65532,
      "type": "SCALAR"
    },
    {
      "bufferView": 1,
      "byteOffset": 1572768,
      "componentType": 5126,
      "count": 65533,
      "max": [
        58.60544967651367,
        38.77949142456055,
        21.996051788330078
      ],
      "min": [
        0.0,
        0.07371000200510025,
        17.94245147705078
      ],
      "type": "VEC3"
    },
    {
      "bufferView": 1,
      "byteOffset": 2359164,
      "componentType": 5126,
      "count": 65533,
      "max": [
        0.9994894862174988,
        0.9999842047691345,
        0.9995282888412476
      ],
      "min": [
        -0.999947726726532,
        -0.9998517632484436,
        -0.9996869564056396
      ],
      "type": "VEC3"
    },
    {
      "bufferView": 0,
      "byteOffset": 262128,
      "componentType": 5125,
      "count": 65535,
      "type": "SCALAR"
    },
    {
      "bufferView": 1,
      "byteOffset": 3145560,
      "componentType": 5126,
      "count": 65533,
      "max": [
        58.663089752197266,
        39.34271240234375,
        22.638050079345703
      ],
      "min": [
        0.33595800399780273,
        0.034710001200437546,
        15.75605297088623
      ],
      "type": "VEC3"
    },
    {
      "bufferView": 1,
      "byteOffset": 3931956,
      "componentType": 5126,
      "count": 65533,
      "max": [
        0.9999292492866516,
        0.999987006187439,
        0.9998758435249329
      ],
      "min": [
        -0.9998540282249451,
        -0.999873697757721,
        -0.9999291896820068
      ],
      "type": "VEC3"
    },
    {
      "bufferView": 0,
      "byteOffset": 524268,
      "componentType": 5125,
      "count": 65535,
      "type": "SCALAR"
    },
    {
      "bufferView": 1,
      "byteOffset": 4718352,
      "componentType": 5126,
      "count": 65532,
      "max": [
        58.64999771118164,
        40.38694381713867,
        17.094051361083984
      ],
      "min": [
        0.984978973865509,
        0.022710999473929405,
        14.048050880432129
      ],
      "type": "VEC3"
    },
    {
      "bufferView": 1,
      "byteOffset": 5504736,
      "componentType": 5126,
      "count": 65532,
      "max": [
        0.9999720454216003,
        0.9999964237213135,
        0.9999582767486572
      ],
      "min": [
        -0.9981529712677002,
        -0.9999995231628418,
        -0.9999828934669495
      ],
      "type": "VEC3"
    },
    {
      "bufferView": 0,
      "byteOffset": 786408,
      "componentType": 5125,
      "count": 65538,
      "type": "SCALAR"
    },
    {
      "bufferView": 1,
      "byteOffset": 6291120,
      "componentType": 5126,
      "count": 65532,
      "max": [
        61.79911804199219,
        44.0311164855957,
        17.304000854492188
      ],
      "min": [
        1.4834460020065308,
        0.01370999962091446,
        8.072861671447754
      ],
      "type": "VEC3"
    },
    {
      "bufferView": 1,
      "byteOffset": 7077504,
      "componentType": 5126,
      "count": 65532,
      "max": [
        0.9997439384460449,
        0.9999850988388062,
        0.999874472618103
      ],
      "min": [
        -0.9993804097175598,
        -0.9999794363975525,
        -0.999998927116394
      ],
      "type": "VEC3"
    },
    {
      "bufferView": 0,
      "byteOffset": 1048560,
      "componentType": 5125,
      "count": 65532,
      "type": "SCALAR"
    },
    {
      "bufferView": 1,
      "byteOffset": 7863888,
      "componentType": 5126,
      "count": 65533,
      "max": [
        52.244991302490234,
        44.013397216796875,
        20.824050903320313
      ],
      "min": [
        5.320558071136475,
        0.10350999981164932,
        6.208052158355713
      ],
      "type": "VEC3"
    },
    {
      "bufferView": 1,
      "byteOffset": 8650284,
      "componentType": 5126,
      "count": 65533,
      "max": [
        0.9983375668525696,
        0.9998248815536499,
        1.0
      ],
      "min": [
        -0.9999005794525146,
        -0.9999600648880005,
        -0.9908702969551086
      ],
      "type": "VEC3"
    },
    {
      "bufferView": 0,
      "byteOffset": 1310688,
      "componentType": 5125,
      "count": 65535,
      "type": "SCALAR"
    },
    {
      "bufferView": 1,
      "byteOffset": 9436680,
      "componentType": 5126,
      "count": 65532,
      "max": [
        52.73467254638672,
        43.25920867919922,
        20.942031860351563
      ],
      "min": [
        2.5279979705810547,
        0.03170999884605408,
        0.0
      ],
      "type": "VEC3"
    },
    {
      "bufferView": 1,
      "byteOffset": 10223064,
      "componentType": 5126,
      "count": 65532,
      "max": [
        0.9967831373214722,
        1.0,
        0.9999945163726807
      ],
      "min": [
        -0.9987280964851379,
        -0.9999480843544006,
        -0.999500572681427
      ],
      "type": "VEC3"
    },
    {
      "bufferView": 0,
      "byteOffset": 1572828,
      "componentType": 5125,
      "count": 65532,
      "type": "SCALAR"
    },
    {
      "bufferView": 1,
      "byteOffset": 11009448,
      "componentType": 5126,
      "count": 65533,
      "max": [
        56.91364669799805,
        44.02370834350586,
        24.130050659179688
      ],
      "min": [
        5.939458847045898,
        0.03170999884605408,
        4.288032054901123
      ],
      "type": "VEC3"
    },
    {
      "bufferView": 1,
      "byteOffset": 11795844,
      "componentType": 5126,
      "count": 65533,
      "max": [
        0.9947904944419861,
        0.9999998211860657,
        1.0
      ],
      "min": [
        -0.9992637038230896,
        -1.0,
        -0.9942894577980042
      ],
      "type": "VEC3"
    },
    {
      "bufferView": 0,
      "byteOffset": 1834956,
      "componentType": 5125,
      "count": 65535,
      "type": "SCALAR"
    },
    {
      "bufferView": 1,
      "byteOffset": 12582240,
      "componentType": 5126,
      "count": 65532,
      "max": [
        60.255741119384766,
        43.644073486328125,
        15.79355525970459
      ],
      "min": [
        5.473704814910889,
        0.0,
        8.768052101135254
      ],
      "type": "VEC3"
    },
    {
      "bufferView": 1,
      "byteOffset": 13368624,
      "componentType": 5126,
      "count": 65532,
      "max": [
        0.9999770522117615,
        0.9999859929084778,
        0.9998027682304382
      ],
      "min": [
        -0.9999114871025085,
        -0.9998072981834412,
        -0.9991908073425293
      ],
      "type": "VEC3"
    },
    {
      "bufferView": 0,
      "byteOffset": 2097096,
      "componentType": 5125,
      "count": 65532,
      "type": "SCALAR"
    },
    {
      "bufferView": 1,
      "byteOffset": 14155008,
      "componentType": 5126,
      "count": 65532,
      "max": [
        62.44113540649414,
        40.25377655029297,
        16.984050750732422
      ],
      "min": [
        3.2702410221099854,
        0.0,
        10.434052467346191
      ],
      "type": "VEC3"
    },
    {
      "bufferView": 1,
      "byteOffset": 14941392,
      "componentType": 5126,
      "count": 65532,
      "max": [
        0.9991405010223389,
        0.9999948143959045,
        0.9999381899833679
      ],
      "min": [
        -1.0,
        -0.9998161792755127,
        -0.9999814033508301
      ],
      "type": "VEC3"
    },
    {
      "bufferView": 0,
      "byteOffset": 2359224,
      "componentType": 5125,
      "count": 65532,
      "type": "SCALAR"
    },
    {
      "bufferView": 1,
      "byteOffset": 15727776,
      "componentType": 5126,
      "count": 41572,
      "max": [
        62.410884857177734,
        40.58690643310547,
        19.119312286376953
      ],
      "min": [
        2.476663112640381,
        0.01370999962091446,
        12.12605094909668
      ],
      "type": "VEC3"
    },
    {
      "bufferView": 1,
      "byteOffset": 16226640,
      "componentType": 5126,
      "count": 41572,
      "max": [
        0.9994441866874695,
        0.9999985694885254,
        0.9999637603759766
      ],
      "min": [
        -0.9969756007194519,
        -0.9999861717224121,
        -0.9999289512634277
      ],
      "type": "VEC3"
    },
    {
      "bufferView": 0,
      "byteOffset": 2621352,
      "componentType": 5125,
      "count": 41574,
      "type": "SCALAR"
    }
  ],
  "asset": {
    "extras": {
      "author": "uptown (https://sketchfab.com/uptown)",
      "license": "CC-BY-4.0 (http://creativecommons.org/licenses/by/4.0/)",
      "source": "https://sketchfab.com/3d-models/dragon-f4b218fb3b0d49e9b3a27367850517b8",
      "title": "Dragon"
    },
    "generator": "Sketchfab-12.66.0",
    "version": "2.0"
  },
  "bufferViews": [
    {
      "buffer": 0,
      "byteLength": 2787648,
      "name": "floatBufferViews",
      "target": 34963
    },
    {
      "buffer": 0,
      "byteLength": 16725504,
      "byteOffset": 2787648,
      "byteStride": 12,
      "name": "floatBufferViews",
      "target": 34962
    }
  ],
  "buffers": [
    {
      "byteLength": 19513152,
      "uri": "scene.bin"
    }
  ],
  "materials": [
    {
      "doubleSided": true,
      "name": "Scene_-_Root",
      "pbrMetallicRoughness": {
        "baseColorFactor": [
          0.5,
          0.5,
          0.5,
          1.0
        ],
        "metallicFactor": 0.0,
        "roughnessFactor": 0.6
      }
    }
  ],
  "meshes": [
    {
      "name": "Object_0",
      "primitives": [
        {
          "attributes": {
            "NORMAL": 1,
            "POSITION": 0
          },
          "indices": 2,
          "material": 0,
          "mode": 4
        }
      ]
    },
    {
      "name": "Object_1",
      "primitives": [
        {
          "attributes": {
            "NORMAL": 4,
            "POSITION": 3
          },
          "indices": 5,
          "material": 0,
          "mode": 4
        }
      ]
    },
    {
      "name": "Object_2",
      "primitives": [
        {
          "attributes": {
            "NORMAL": 7,
            "POSITION": 6
          },
          "indices": 8,
          "material": 0,
          "mode": 4
        }
      ]
    },
    {
      "name": "Object_3",
      "primitives": [
        {
          "attributes": {
            "NORMAL": 10,
            "POSITION": 9
          },
          "indices": 11,
          "material": 0,
          "mode": 4
        }
      ]
    },
    {
      "name": "Object_4",
      "primitives": [
        {
          "attributes": {
            "NORMAL": 13,
            "POSITION": 12
          },
          "indices": 14,
          "material": 0,
          "mode": 4
        }
      ]
    },
    {
      "name": "Object_5",
      "primitives": [
        {
          "attributes": {
            "NORMAL": 16,
            "POSITION": 15
          },
          "indices": 17,
          "material": 0,
          "mode": 4
        }
      ]
    },
    {
      "name": "Object_6",
      "primitives": [
        {
          "attributes": {
            "NORMAL": 19,
            "POSITION": 18
          },
          "indices": 20,
          "material": 0,
          "mode": 4
        }
      ]
    },
    {
      "name": "Object_7",
      "primitives": [
        {
          "attributes": {
            "NORMAL": 22,
            "POSITION": 21
          },
          "indices": 23,
          "material": 0,
          "mode": 4
        }
      ]
    },
    {
      "name": "Object_8",
      "primitives": [
        {
          "attributes": {
            "NORMAL": 25,
            "POSITION": 24
          },
          "indices": 26,
          "material": 0,
          "mode": 4
        }
      ]
    },
    {
      "name": "Object_9",
      "primitives": [
        {
          "attributes": {
            "NORMAL": 28,
            "POSITION": 27
          },
          "indices": 29,
          "material": 0,
          "mode": 4
        }
      ]
    },
    {
      "name": "Object_10",
      "primitives": [
        {
          "attributes": {
            "NORMAL": 31,
            "POSITION": 30
          },
          "indices": 32,
          "material": 0,
          "mode": 4
        }
      ]
    }
  ],
  "nodes": [
    {
      "children": [
        1
      ],
      "matrix": [
        1.0,
        0.0,
        0.0,
        0.0,
        0.0,
        1.0,
        -2.220446049250313e-16,
        0.0,
        0.0,
        2.220446049250313e-16,
        1.0,
        0.0,
        0.0,
        14.95389747619629,
        -11.171805381774899,
        1.0
      ],
      "name": "Sketchfab_model"
    },
    {
      "children": [
        2
      ],
      "matrix": [
        1.0,
        0.0,
        0.0,
        0.0,
        0.0,
        1.0,
        0.0,
        0.0,
        0.0,
        0.0,
        1.0,
        0.0,
        -31.215309143066406,
        -22.012807846069336,
        0.0019680000841617584,
        1.0
      ],
      "name": "1d969623d787416bb4b5123cdde5ce0b.dxf.cleaner"
    },
    {
      "children": [
        3
      ],
      "matrix": [
        1.0,
        0.0,
        0.0,
        0.0,
        0.0,
        1.0,
        0.0,
        0.0,
        0.0,
        0.0,
        1.0,
        0.0,
        1.4306640494510248e-07,
        -1.5393066377100695e-07,
        -8.416175829167871e-11,
        1.0
      ],
      "name": "Layers"
    },
    {
      "children": [
        4,
        5,
        6,
        7,
        8,
        9,
        10,
        11,
        12,
        13,
        14
      ],
      "name": "0"
    },
    {
      "mesh": 0,
      "name": "Object_4"
    },
    {
      "mesh": 1,
      "name": "Object_5"
    },
    {
      "mesh": 2,
      "name": "Object_6"
    },
    {
      "mesh": 3,
      "name": "Object_7"
    },
    {
      "mesh": 4,
      "name": "Object_8"
    },
    {
      "mesh": 5,
      "name": "Object_9"
    },
    {
      "mesh": 6,
      "name": "Object_10"
    },
    {
      "mesh": 7,
      "name": "Object_11"
    },
    {
      "mesh": 8,
      "name": "Object_12"
    },
    {
      "mesh": 9,
      "name": "Object_13"
    },
    {
      "mesh": 10,
      "name": "Object_14"
    }
  ],
  "scene": 0,
  "scenes": [
    {
      "name": "Sketchfab_Scene",
      "nodes": [
        0
      ]
    }
  ]
}
